<svg width="100" height="12" viewBox="0 0 100 12" fill="none" xmlns="http://www.w3.org/2000/svg">
<path d="M8.134 2.81C8.37667 3.30467 8.498 3.85533 8.498 4.462C8.498 5.06867 8.37667 5.61933 8.134 6.114C7.89133 6.59933 7.57867 6.98667 7.196 7.276C6.42133 7.87333 5.61867 8.172 4.788 8.172H3.038V9.754C3.038 9.96867 3.02867 10.132 3.01 10.244C3.00067 10.3467 2.95867 10.468 2.884 10.608C2.75333 10.86 2.38933 10.986 1.792 10.986C1.13867 10.986 0.756 10.8133 0.644 10.468C0.588 10.3093 0.56 10.0667 0.56 9.74V1.97C0.56 1.75533 0.564667 1.59667 0.574 1.494C0.592667 1.382 0.639333 1.256 0.714 1.116C0.844667 0.863999 1.20867 0.737999 1.806 0.737999H4.802C5.62333 0.737999 6.42133 1.03667 7.196 1.634C7.57867 1.92333 7.89133 2.31533 8.134 2.81ZM4.802 5.694C5.082 5.694 5.35733 5.59133 5.628 5.386C5.89867 5.18067 6.034 4.87267 6.034 4.462C6.034 4.05133 5.89867 3.74333 5.628 3.538C5.35733 3.32333 5.07733 3.216 4.788 3.216H3.038V5.694H4.802ZM15.2017 0.611999C16.583 0.611999 17.7824 1.11133 18.7997 2.11C19.817 3.10867 20.3257 4.35 20.3257 5.834C20.3257 7.30867 19.8404 8.56867 18.8697 9.614C17.899 10.65 16.7044 11.168 15.2857 11.168C13.867 11.168 12.6584 10.6547 11.6597 9.628C10.6704 8.60133 10.1757 7.37867 10.1757 5.96C10.1757 5.18533 10.3157 4.462 10.5957 3.79C10.8757 3.10867 11.249 2.53933 11.7157 2.082C12.1824 1.62467 12.719 1.26533 13.3257 1.004C13.9324 0.742666 14.5577 0.611999 15.2017 0.611999ZM12.6537 5.89C12.6537 6.72067 12.9197 7.39733 13.4517 7.92C13.993 8.43333 14.595 8.69 15.2577 8.69C15.9204 8.69 16.5177 8.438 17.0497 7.934C17.5817 7.43 17.8477 6.75333 17.8477 5.904C17.8477 5.05467 17.577 4.37333 17.0357 3.86C16.5037 3.34667 15.9064 3.09 15.2437 3.09C14.581 3.09 13.9837 3.35133 13.4517 3.874C12.9197 4.38733 12.6537 5.05933 12.6537 5.89ZM27.5692 4.812H30.0332C30.5372 4.83067 30.8452 4.96133 30.9572 5.204C31.0505 5.38133 31.0972 5.64267 31.0972 5.988V9.068C31.0972 9.36667 30.9665 9.65133 30.7052 9.922C29.9212 10.734 28.7452 11.14 27.1772 11.14C25.7865 11.14 24.5778 10.6173 23.5512 9.572C22.5245 8.51733 22.0112 7.248 22.0112 5.764C22.0112 4.28 22.5338 3.04333 23.5792 2.054C24.6245 1.05533 25.8565 0.555999 27.2752 0.555999C28.3765 0.555999 29.4172 0.919999 30.3972 1.648C30.6492 1.83467 30.7752 2.04467 30.7752 2.278C30.7752 2.502 30.6678 2.76333 30.4532 3.062C30.0892 3.55667 29.7578 3.804 29.4592 3.804C29.2818 3.804 28.9972 3.678 28.6052 3.426C28.2132 3.16467 27.7465 3.034 27.2052 3.034C26.4958 3.034 25.8658 3.286 25.3152 3.79C24.7645 4.28467 24.4892 4.938 24.4892 5.75C24.4892 6.55267 24.7692 7.23867 25.3292 7.808C25.8892 8.368 26.5238 8.648 27.2332 8.648C27.7465 8.648 28.2085 8.564 28.6192 8.396V6.87H27.5132C27.2238 6.87 27.0185 6.83267 26.8972 6.758C26.7758 6.68333 26.6965 6.576 26.6592 6.436C26.6218 6.28667 26.6032 6.09067 26.6032 5.848C26.6032 5.596 26.6218 5.39533 26.6592 5.246C26.7058 5.09667 26.7852 4.994 26.8972 4.938C27.0652 4.854 27.2892 4.812 27.5692 4.812ZM38.0113 0.611999C39.3926 0.611999 40.592 1.11133 41.6093 2.11C42.6266 3.10867 43.1353 4.35 43.1353 5.834C43.1353 7.30867 42.65 8.56867 41.6793 9.614C40.7086 10.65 39.514 11.168 38.0953 11.168C36.6766 11.168 35.468 10.6547 34.4693 9.628C33.48 8.60133 32.9853 7.37867 32.9853 5.96C32.9853 5.18533 33.1253 4.462 33.4053 3.79C33.6853 3.10867 34.0586 2.53933 34.5253 2.082C34.992 1.62467 35.5286 1.26533 36.1353 1.004C36.742 0.742666 37.3673 0.611999 38.0113 0.611999ZM35.4633 5.89C35.4633 6.72067 35.7293 7.39733 36.2613 7.92C36.8026 8.43333 37.4046 8.69 38.0673 8.69C38.73 8.69 39.3273 8.438 39.8593 7.934C40.3913 7.43 40.6573 6.75333 40.6573 5.904C40.6573 5.05467 40.3866 4.37333 39.8453 3.86C39.3133 3.34667 38.716 3.09 38.0533 3.09C37.3906 3.09 36.7933 3.35133 36.2613 3.874C35.7293 4.38733 35.4633 5.05933 35.4633 5.89ZM47.2008 8.69C47.3594 8.84867 47.4388 9.17533 47.4388 9.67V9.726C47.4388 9.95 47.4294 10.118 47.4108 10.23C47.4014 10.3327 47.3548 10.4587 47.2708 10.608C47.1308 10.8787 46.7761 11.014 46.2068 11.014C45.6468 11.014 45.2734 10.9253 45.0868 10.748C44.9094 10.5707 44.8208 10.2347 44.8208 9.74V9.684C44.8208 9.46933 44.8254 9.306 44.8348 9.194C44.8534 9.082 44.9001 8.956 44.9748 8.816C45.1148 8.536 45.4648 8.396 46.0248 8.396C46.5941 8.396 46.9861 8.494 47.2008 8.69ZM55.745 8.312L55.997 8.13C56.3144 7.94333 56.5384 7.85 56.669 7.85C56.9584 7.85 57.271 8.11133 57.607 8.634C57.8124 8.96067 57.915 9.222 57.915 9.418C57.915 9.614 57.8497 9.77733 57.719 9.908C57.5977 10.0387 57.453 10.1553 57.285 10.258C57.117 10.3607 56.9537 10.4587 56.795 10.552C56.6457 10.6453 56.333 10.7667 55.857 10.916C55.381 11.0653 54.919 11.14 54.471 11.14C54.0324 11.14 53.5844 11.084 53.127 10.972C52.679 10.8507 52.2124 10.6547 51.727 10.384C51.251 10.104 50.8217 9.768 50.439 9.376C50.0564 8.97467 49.739 8.466 49.487 7.85C49.2444 7.22467 49.123 6.548 49.123 5.82C49.123 5.092 49.2444 4.434 49.487 3.846C49.7297 3.24867 50.0377 2.75867 50.411 2.376C50.7937 1.984 51.2277 1.65733 51.713 1.396C52.6277 0.892 53.547 0.64 54.471 0.64C54.9097 0.64 55.353 0.71 55.801 0.85C56.2584 0.980666 56.6037 1.116 56.837 1.256L57.173 1.452C57.341 1.55467 57.4717 1.63867 57.565 1.704C57.8077 1.9 57.929 2.124 57.929 2.376C57.929 2.61867 57.831 2.87533 57.635 3.146C57.271 3.65 56.9444 3.902 56.655 3.902C56.487 3.902 56.249 3.79933 55.941 3.594C55.549 3.27667 55.0264 3.118 54.373 3.118C53.7664 3.118 53.169 3.328 52.581 3.748C52.301 3.95333 52.0677 4.24267 51.881 4.616C51.6944 4.98933 51.601 5.414 51.601 5.89C51.601 6.35667 51.6944 6.77667 51.881 7.15C52.0677 7.52333 52.3057 7.81733 52.595 8.032C53.1644 8.44267 53.757 8.648 54.373 8.648C54.6624 8.648 54.933 8.61067 55.185 8.536C55.4464 8.46133 55.633 8.38667 55.745 8.312ZM64.631 0.611999C66.0123 0.611999 67.2117 1.11133 68.229 2.11C69.2463 3.10867 69.755 4.35 69.755 5.834C69.755 7.30867 69.2697 8.56867 68.299 9.614C67.3283 10.65 66.1337 11.168 64.715 11.168C63.2963 11.168 62.0877 10.6547 61.089 9.628C60.0997 8.60133 59.605 7.37867 59.605 5.96C59.605 5.18533 59.745 4.462 60.025 3.79C60.305 3.10867 60.6783 2.53933 61.145 2.082C61.6117 1.62467 62.1483 1.26533 62.755 1.004C63.3617 0.742666 63.987 0.611999 64.631 0.611999ZM62.083 5.89C62.083 6.72067 62.349 7.39733 62.881 7.92C63.4223 8.43333 64.0243 8.69 64.687 8.69C65.3497 8.69 65.947 8.438 66.479 7.934C67.011 7.43 67.277 6.75333 67.277 5.904C67.277 5.05467 67.0063 4.37333 66.465 3.86C65.933 3.34667 65.3357 3.09 64.673 3.09C64.0103 3.09 63.413 3.35133 62.881 3.874C62.349 4.38733 62.083 5.05933 62.083 5.89ZM72.8965 0.724L75.4865 0.737999C76.8398 0.737999 78.0298 1.228 79.0565 2.208C80.0831 3.17867 80.5965 4.378 80.5965 5.806C80.5965 7.22467 80.0925 8.44267 79.0845 9.46C78.0858 10.4773 76.8725 10.986 75.4445 10.986H72.8825C72.3131 10.986 71.9585 10.8693 71.8185 10.636C71.7065 10.44 71.6505 10.1413 71.6505 9.74V1.956C71.6505 1.732 71.6551 1.56867 71.6645 1.466C71.6831 1.36333 71.7298 1.242 71.8045 1.102C71.9351 0.85 72.2991 0.724 72.8965 0.724ZM75.4865 8.508C76.1585 8.508 76.7651 8.26067 77.3065 7.766C77.8478 7.262 78.1185 6.632 78.1185 5.876C78.1185 5.12 77.8525 4.49 77.3205 3.986C76.7978 3.47267 76.1818 3.216 75.4725 3.216H74.1285V8.508H75.4865ZM84.9659 8.522H89.2779C89.4926 8.522 89.6512 8.53133 89.7539 8.55C89.8659 8.55933 89.9919 8.60133 90.1319 8.676C90.3839 8.80667 90.5099 9.17067 90.5099 9.768C90.5099 10.4213 90.3372 10.804 89.9919 10.916C89.8332 10.972 89.5906 11 89.2639 11H83.7199C83.0666 11 82.6839 10.8227 82.5719 10.468C82.5159 10.3187 82.4879 10.0807 82.4879 9.754V1.97C82.4879 1.494 82.5766 1.172 82.7539 1.004C82.9312 0.826666 83.2672 0.737999 83.7619 0.737999H89.2779C89.4926 0.737999 89.6512 0.747333 89.7539 0.766C89.8659 0.775333 89.9919 0.817333 90.1319 0.891999C90.3839 1.02267 90.5099 1.38667 90.5099 1.984C90.5099 2.63733 90.3372 3.02 89.9919 3.132C89.8332 3.188 89.5906 3.216 89.2639 3.216H84.9659V4.63H87.7379C87.9526 4.63 88.1112 4.63933 88.2139 4.658C88.3259 4.66733 88.4519 4.70933 88.5919 4.784C88.8439 4.91467 88.9699 5.27867 88.9699 5.876C88.9699 6.52933 88.7926 6.912 88.4379 7.024C88.2792 7.08 88.0366 7.108 87.7099 7.108H84.9659V8.522ZM92.5496 9.558C92.307 9.25933 92.1856 8.99333 92.1856 8.76C92.1856 8.51733 92.3863 8.2 92.7876 7.808C93.021 7.584 93.2683 7.472 93.5296 7.472C93.791 7.472 94.155 7.70533 94.6216 8.172C94.7523 8.33067 94.939 8.48467 95.1816 8.634C95.4243 8.774 95.6483 8.844 95.8536 8.844C96.7216 8.844 97.1556 8.48933 97.1556 7.78C97.1556 7.56533 97.0343 7.388 96.7916 7.248C96.5583 7.09867 96.2643 6.99133 95.9096 6.926C95.555 6.86067 95.1723 6.758 94.7616 6.618C94.351 6.46867 93.9683 6.296 93.6136 6.1C93.259 5.904 92.9603 5.596 92.7176 5.176C92.4843 4.74667 92.3676 4.23333 92.3676 3.636C92.3676 2.81467 92.671 2.10067 93.2776 1.494C93.8936 0.877999 94.729 0.569999 95.7836 0.569999C96.3436 0.569999 96.8523 0.644666 97.3096 0.794C97.7763 0.933999 98.0983 1.07867 98.2756 1.228L98.6256 1.494C98.915 1.76467 99.0596 1.99333 99.0596 2.18C99.0596 2.36667 98.9476 2.62333 98.7236 2.95C98.4063 3.41667 98.0796 3.65 97.7436 3.65C97.5476 3.65 97.305 3.55667 97.0156 3.37C96.9876 3.35133 96.9316 3.30467 96.8476 3.23C96.773 3.15533 96.703 3.09467 96.6376 3.048C96.4416 2.92667 96.1896 2.866 95.8816 2.866C95.583 2.866 95.331 2.94067 95.1256 3.09C94.9296 3.23 94.8316 3.43067 94.8316 3.692C94.8316 3.944 94.9483 4.14933 95.1816 4.308C95.4243 4.46667 95.723 4.574 96.0776 4.63C96.4323 4.686 96.8196 4.77467 97.2396 4.896C97.6596 5.008 98.047 5.148 98.4016 5.316C98.7563 5.484 99.0503 5.778 99.2836 6.198C99.5263 6.60867 99.6476 7.11733 99.6476 7.724C99.6476 8.33067 99.5263 8.86733 99.2836 9.334C99.041 9.79133 98.7236 10.146 98.3316 10.398C97.5756 10.8927 96.7683 11.14 95.9096 11.14C95.471 11.14 95.0556 11.0887 94.6636 10.986C94.2716 10.874 93.9543 10.7387 93.7116 10.58C93.217 10.2813 92.8716 9.992 92.6756 9.712L92.5496 9.558Z" fill="url(#paint0_linear)"/>
<defs>
<linearGradient id="paint0_linear" x1="-5.5" y1="0.499996" x2="102.5" y2="14" gradientUnits="userSpaceOnUse">
<stop stop-color="#EC4899"/>
<stop offset="1" stop-color="#EF4444"/>
</linearGradient>
</defs>
</svg>
